<?xml version="1.0" encoding="UTF-8"?>
<svg width="44px" height="53px" viewBox="0 0 44 53" version="1.1" xmlns="http://www.w3.org/2000/svg" xmlns:xlink="http://www.w3.org/1999/xlink">
    <!-- Generator: sketchtool 50.2 (55047) - http://www.bohemiancoding.com/sketch -->
    <title>27D1819C-403F-4086-884B-DC04E72ED490</title>
    <desc>Created with sketchtool.</desc>
    <defs></defs>
    <g id="Page-1" stroke="none" stroke-width="1" fill="none" fill-rule="evenodd" stroke-linecap="round" stroke-linejoin="round">
        <g id="Homepage_Produk-Sosial" transform="translate(-22.000000, -17.000000)" stroke="#3A3A3C" stroke-width="2">
            <g id="Icon-Produk-Berdampak" transform="translate(23.000000, 18.000000)">
                <path d="M11.6419755,13.2963611 C11.6419755,15.945213 9.46333852,18.0938241 6.77497428,18.0938241 C4.08772787,18.0938241 1.90909091,15.945213 1.90909091,13.2963611 C1.90909091,10.6475093 4.08772787,8.5 6.77497428,8.5 C9.46333852,8.5 11.6419755,10.6475093 11.6419755,13.2963611 Z" id="Stroke-1"></path>
                <path d="M18.8010664,4.79746296 C18.8010664,7.44631481 16.6224294,9.59382407 13.9340652,9.59382407 C11.2468188,9.59382407 9.06818182,7.44631481 9.06818182,4.79746296 C9.06818182,2.14861111 11.2468188,0 13.9340652,0 C16.6224294,0 18.8010664,2.14861111 18.8010664,4.79746296 Z" id="Stroke-3"></path>
                <path d="M32.6408577,4.79746296 C32.6408577,7.44631481 30.4622207,9.59382407 27.7738565,9.59382407 C25.08661,9.59382407 22.9090909,7.44631481 22.9090909,4.79746296 C22.9090909,2.14861111 25.08661,0 27.7738565,0 C30.4622207,0 32.6408577,2.14861111 32.6408577,4.79746296 Z" id="Stroke-5"></path>
                <path d="M6.69333553,38.7143519 L6.69333553,48.7643426 C6.69333553,49.936713 5.72977213,50.8865093 4.54040849,50.8865093 C3.35104486,50.8865093 2.38636364,49.936713 2.38636364,48.7643426 L2.38636364,37.7777778" id="Stroke-7"></path>
                <path d="M10.9887901,37.7777778 L10.9887901,48.7632407 C10.9887901,49.9356111 10.0252267,50.8854074 8.83586304,50.8854074 C7.6464994,50.8854074 6.68181818,49.9356111 6.68181818,48.7632407 L6.68181818,38.7143519" id="Stroke-9"></path>
                <path d="M2.65482955,37.4125926 C1.04292883,36.2203889 0,34.3207963 0,32.1821019 L0,23.7749722 C0,20.8153981 2.4335006,18.4166667 5.43597309,18.4166667 L8.48986543,18.4166667 C11.4923379,18.4166667 13.9258385,20.8153981 13.9258385,23.7749722 L13.9258385,32.1821019 C13.9258385,34.3207963 12.8840275,36.219287 11.2721268,37.4114907" id="Stroke-11"></path>
                <path d="M25.4828846,13.2963611 C25.4828846,15.945213 23.3042476,18.0938241 20.6158834,18.0938241 C17.928637,18.0938241 15.75,15.945213 15.75,13.2963611 C15.75,10.6475093 17.928637,8.5 20.6158834,8.5 C23.3042476,8.5 25.4828846,10.6475093 25.4828846,13.2963611 Z" id="Stroke-13"></path>
                <path d="M20.5342446,38.7143519 L20.5342446,48.7643426 C20.5342446,49.936713 19.5695634,50.8865093 18.3813176,50.8865093 C17.1919539,50.8865093 16.2272727,49.936713 16.2272727,48.7643426 L16.2272727,37.7777778" id="Stroke-15"></path>
                <path d="M24.8296992,37.7777778 L24.8296992,48.7632407 C24.8296992,49.9356111 23.8661358,50.8854074 22.6756543,50.8854074 C21.4874085,50.8854074 20.5227273,49.9356111 20.5227273,48.7632407 L20.5227273,38.7143519" id="Stroke-17"></path>
                <path d="M16.4957386,37.4125926 C14.8838379,36.2203889 13.8409091,34.3207963 13.8409091,32.1821019 L13.8409091,23.7749722 C13.8409091,20.8153981 16.2744097,18.4166667 19.2757644,18.4166667 L22.3307745,18.4166667 C25.333247,18.4166667 27.7667476,20.8153981 27.7667476,23.7749722 L27.7667476,32.1821019 C27.7667476,34.3207963 26.7249366,36.219287 25.1130359,37.4114907" id="Stroke-19"></path>
                <path d="M39.3237937,13.2963611 C39.3237937,15.945213 37.1451567,18.0938241 34.4567925,18.0938241 C31.7695461,18.0938241 29.5909091,15.945213 29.5909091,13.2963611 C29.5909091,10.6475093 31.7695461,8.5 34.4567925,8.5 C37.1451567,8.5 39.3237937,10.6475093 39.3237937,13.2963611 Z" id="Stroke-21"></path>
                <path d="M34.3751537,38.7143519 L34.3751537,48.7643426 C34.3751537,49.936713 33.4115903,50.8865093 32.2222267,50.8865093 C31.032863,50.8865093 30.0681818,49.936713 30.0681818,48.7643426 L30.0681818,37.7777778" id="Stroke-23"></path>
                <path d="M38.6706083,37.7777778 L38.6706083,48.7632407 C38.6706083,49.9356111 37.7070449,50.8854074 36.5176812,50.8854074 C35.3283176,50.8854074 34.3636364,49.9356111 34.3636364,48.7632407 L34.3636364,38.7143519" id="Stroke-25"></path>
                <path d="M30.3377656,37.4125926 C28.7258648,36.2203889 27.6818182,34.3207963 27.6818182,32.1821019 L27.6818182,23.7749722 C27.6818182,20.8153981 30.1164366,18.4166667 33.1177913,18.4166667 L36.1728014,18.4166667 C39.1741561,18.4166667 41.6087745,20.8153981 41.6087745,23.7749722 L41.6087745,32.1821019 C41.6087745,34.3207963 40.5658457,36.219287 38.9550628,37.4114907" id="Stroke-27"></path>
            </g>
        </g>
    </g>
</svg>