<?xml version="1.0" encoding="UTF-8"?>
<svg width="53px" height="51px" viewBox="0 0 53 51" version="1.1" xmlns="http://www.w3.org/2000/svg" xmlns:xlink="http://www.w3.org/1999/xlink">
    <!-- Generator: sketchtool 50.2 (55047) - http://www.bohemiancoding.com/sketch -->
    <title>3C91B455-7D49-483B-A232-C4A51FCF865A</title>
    <desc>Created with sketchtool.</desc>
    <defs></defs>
    <g id="Page-1" stroke="none" stroke-width="1" fill="none" fill-rule="evenodd" stroke-linecap="round" stroke-linejoin="round">
        <g id="Homepage_Produk-Sosial-Copy-3" transform="translate(-17.000000, -18.000000)" stroke="#323232" stroke-width="2">
            <g id="Icon-Slider-05-(gitar)" transform="translate(18.000000, 19.000000)">
                <path d="M24.0239787,44.9689826 C25.0989168,42.7950805 24.2473514,38.4294065 25.0927311,37.5847256 C25.5305415,37.1462338 26.5367495,36.7098039 27.4061846,36.3895262 C27.9415918,36.311175 28.4474449,36.1482869 28.9058744,35.8946765 C29.2247818,35.7173553 29.522383,35.5008586 29.787681,35.2355642 C31.7327415,33.29053 31.2901199,29.6932477 28.7986555,27.2018169 C26.3071911,24.7096989 22.7098601,24.2670834 20.7647996,26.2128049 C20.1194244,26.857484 19.7427838,27.6863573 19.6108221,28.594269 C19.29054,29.4630051 18.8534169,30.4691995 18.4156064,30.9076913 C17.5702268,31.7530595 13.2051811,30.9008184 11.0312496,31.9764291 C8.8628164,33.0486035 3.42558193,38.3187527 10.5535757,45.44665 C17.6815695,52.5745474 22.9511026,47.1366992 24.0239787,44.9689826 Z" id="Stroke-1"></path>
                <path d="M24.414129,33.4141964 C23.6329677,34.1952679 22.3670323,34.1952679 21.585871,33.4141964 C20.8047097,32.6337385 20.8047097,31.3667216 21.585871,30.5862638 C22.3670323,29.8045787 23.6329677,29.8045787 24.414129,30.5862638 C25.1952903,31.3667216 25.1952903,32.6337385 24.414129,33.4141964 Z" id="Stroke-3"></path>
                <path d="M14,38 L17,41" id="Stroke-5"></path>
                <path d="M29.1677048,27.9845719 C29.5442473,28.3619126 30.036432,28.9335767 29.9701493,29 L40,18.9488871 L38.0552356,17 L28,27.0772583 C28.083206,26.9938759 28.7446233,27.5605936 29.1677048,27.9845719 Z" id="Stroke-7"></path>
                <path d="M39.869346,18.8036952 L37.196507,16.1308827 C36.8609039,15.7945779 36.9673663,15.1706161 37.4228276,14.8004693 L41.802589,11.2463548 C42.1826102,10.9382517 42.6761442,10.9163954 42.9560484,11.1962969 L44.8039806,13.0435057 C45.0831798,13.3241123 45.0620284,13.8176414 44.7539222,14.1976588 L41.1990675,18.5773769 C40.8296221,19.0321287 40.2049491,19.139295 39.869346,18.8036952 Z" id="Stroke-9"></path>
                <path d="M39,11 L39.919,11.919" id="Stroke-11"></path>
                <path d="M37,12 L37.919,12.919" id="Stroke-13"></path>
                <path d="M44.919,15.919 L44,15" id="Stroke-15"></path>
                <path d="M42.919,18.919 L42,18" id="Stroke-17"></path>
                <path d="M5,28.5 C5,29.8811963 3.88065901,31 2.50034612,31 C1.11934099,31 0,29.8811963 0,28.5 C0,27.119496 1.11934099,26 2.50034612,26 C3.88065901,26 5,27.119496 5,28.5 Z" id="Stroke-19"></path>
                <path d="M5,28 L5,13" id="Stroke-21"></path>
                <path d="M5,13 C5,13 6.34575619,15.4588985 8.10655867,15.9640315 C9.4173783,16.3390034 11.2725095,18.0135631 10.9664653,22 C10.9664653,22 9.46628948,19.013713 7.61884433,18.2570251 C5.84266976,17.5300112 5,16.8758336 5,13 Z" id="Stroke-23"></path>
                <path d="M46.5605469,27.5604549 C45.9746094,28.146515 45.0253906,28.146515 44.4394531,27.5604549 C43.8535156,26.975232 43.8535156,26.0249773 44.4394531,25.4389172 C45.0253906,24.8536943 45.9746094,24.8536943 46.5605469,25.4389172 C47.1464844,26.0249773 47.1464844,26.975232 46.5605469,27.5604549 Z" id="Stroke-25"></path>
                <path d="M45,27 L50,22" id="Stroke-27"></path>
                <path d="M50.7181069,22 C50.7181069,22 50.1029697,23.2729522 50.7364388,24.0204454 C51.2069577,24.5758562 51.270101,25.7491861 49,27" id="Stroke-29"></path>
                <path d="M35,44.9996196 C35,46.1044322 34.1044322,47 33.0003804,47 C31.8955678,47 31,46.1044322 31,44.9996196 C31,43.8955678 31.8955678,43 33.0003804,43 C34.1044322,43 35,43.8955678 35,44.9996196 Z" id="Stroke-31"></path>
                <path d="M35,46 L35,39.4976334 L35,35.7482355 C35,35.5637917 35.1286796,35.4052852 35.3041517,35.3764659 L43.5829956,34.0046647 C43.8018197,33.9686405 44,34.1458795 44,34.3771548 L44,45.0828241" id="Stroke-33"></path>
                <path d="M44,36 L35,38" id="Stroke-35"></path>
                <path d="M44,44.0003804 C44,45.1044322 43.1044322,46 42.0003804,46 C40.8955678,46 40,45.1044322 40,44.0003804 C40,42.8955678 40.8955678,42 42.0003804,42 C43.1044322,42 44,42.8955678 44,44.0003804 Z" id="Stroke-37"></path>
                <path d="M22,10.4995999 C22,11.328621 21.3288,12 20.5,12 C19.672,12 19,11.328621 19,10.4995999 C19,9.67137903 19.672,9 20.5,9 C21.3288,9 22,9.67137903 22,10.4995999 Z" id="Stroke-39"></path>
                <path d="M22,10 L22,5.66557059 L22,3.16672523 C22,3.04215332 22.0861829,2.93710889 22.2025941,2.9175814 L27.7215136,2.00315618 C27.8681531,1.97891516 28,2.09742682 28,2.25162665 L28,9.38858756" id="Stroke-41"></path>
                <path d="M29,9.50040011 C29,10.328621 28.3288,11 27.5,11 C26.672,11 26,10.328621 26,9.50040011 C26,8.67137903 26.672,8 27.5,8 C28.3288,8 29,8.67137903 29,9.50040011 Z" id="Stroke-43"></path>
                <path d="M21,17.5 C21,18.3286264 20.3286264,19 19.5,19 C18.6713736,19 18,18.3286264 18,17.5 C18,16.6713736 18.6713736,16 19.5,16 C20.3286264,16 21,16.6713736 21,17.5 Z" id="Stroke-45"></path>
                <path d="M8,0 L8,4" id="Stroke-47"></path>
                <path d="M11,2 L7,2" id="Stroke-49"></path>
                <path d="M38,4 L38,8" id="Stroke-51"></path>
                <path d="M40,5 L36,5" id="Stroke-53"></path>
            </g>
        </g>
    </g>
</svg>