<?xml version="1.0" encoding="UTF-8"?>
<svg width="44px" height="39px" viewBox="0 0 44 39" version="1.1" xmlns="http://www.w3.org/2000/svg" xmlns:xlink="http://www.w3.org/1999/xlink">
    <!-- Generator: sketchtool 50.2 (55047) - http://www.bohemiancoding.com/sketch -->
    <title>B8F8AFDB-D3ED-4F75-860D-1026DD527AEA</title>
    <desc>Created with sketchtool.</desc>
    <defs></defs>
    <g id="Page-1" stroke="none" stroke-width="1" fill="none" fill-rule="evenodd">
        <g id="Homepage_Produk-Sosial-Copy" transform="translate(-21.000000, -24.000000)">
            <g id="Icon-slider-02-(chatbubble)" transform="translate(22.000000, 25.000000)">
                <path d="M6,13.6686393 C7.19582324,5.95337973 14.904661,0 24.1779661,0 C34.2748184,0 42,7.05705869 42,15.7634354 C42,19.578139 40.9857748,23.0751892 37.3538136,25.8024304 L37.3538136,25.8033844 C36.7881356,28.8578182 37.3756053,31.9122521 37.8976998,33.7800165 C38.1065375,34.5269315 37.4228208,35.2023029 36.7236683,34.9437921 L26.903753,31.3017469 C25.9394673,31.4372028 25.0714286,31.5268707 24.0635593,31.5268707" id="Stroke-1" stroke="#323232" stroke-width="2" stroke-linecap="round" stroke-linejoin="round"></path>
                <path d="M31,28 C31,28 34.4525862,27.4151347 37,26" id="Stroke-3" stroke="#323232" stroke-width="2" stroke-linecap="round" stroke-linejoin="round"></path>
                <path d="M13.2842975,12 C5.73602333,12 0,17.0704897 0,23.3257723 C0,26.0664343 0.88906174,28.580033 3.51424404,30.5396682 L3.51424404,30.5405517 C4.00690326,32.5231582 3.65862907,34.5066482 3.26047642,35.8601924 C3.05658726,36.5546348 3.71288284,37.1889982 4.38930481,36.9477988 L11.2664074,34.4916285 C11.9874575,34.5879316 12.6262518,34.6524281 13.3796791,34.6524281 C20.9288284,34.6524281 27,29.5810549 27,23.3257723 C27,17.0704897 20.8325717,12 13.2842975,12 Z" id="Stroke-5" stroke="#323232" stroke-width="2" stroke-linecap="round" stroke-linejoin="round"></path>
                <path d="M11,34 C11,34 8.6984127,33.4145535 7,32" id="Stroke-7" stroke="#323232" stroke-width="2" stroke-linecap="round" stroke-linejoin="round"></path>
                <path d="M7.5,25 C6.67139738,25 6,24.3286026 6,23.5 C6,22.6713974 6.67139738,22 7.5,22 C8.32860262,22 9,22.6713974 9,23.5 C9,24.3286026 8.32860262,25 7.5,25" id="Fill-9" fill="#323232"></path>
                <path d="M13.5,25 C12.6713974,25 12,24.3286026 12,23.5 C12,22.6713974 12.6713974,22 13.5,22 C14.3286026,22 15,22.6713974 15,23.5 C15,24.3286026 14.3286026,25 13.5,25" id="Fill-11" fill="#323232"></path>
                <path d="M20.5,25 C19.6713974,25 19,24.3286026 19,23.5 C19,22.6713974 19.6713974,22 20.5,22 C21.3286026,22 22,22.6713974 22,23.5 C22,24.3286026 21.3286026,25 20.5,25" id="Fill-13" fill="#323232"></path>
                <path d="M26.5,16 C25.6713974,16 25,15.3286026 25,14.5 C25,13.6713974 25.6713974,13 26.5,13 C27.3286026,13 28,13.6713974 28,14.5 C28,15.3286026 27.3286026,16 26.5,16" id="Fill-15" fill="#323232"></path>
                <path d="M33.5,16 C32.6713974,16 32,15.3286026 32,14.5 C32,13.6713974 32.6713974,13 33.5,13 C34.3286026,13 35,13.6713974 35,14.5 C35,15.3286026 34.3286026,16 33.5,16" id="Fill-17" fill="#323232"></path>
            </g>
        </g>
    </g>
</svg>