<?xml version="1.0" encoding="UTF-8"?>
<svg width="52px" height="51px" viewBox="0 0 52 51" version="1.1" xmlns="http://www.w3.org/2000/svg" xmlns:xlink="http://www.w3.org/1999/xlink">
    <!-- Generator: sketchtool 50.2 (55047) - http://www.bohemiancoding.com/sketch -->
    <title>13E9151D-CFC5-4D87-9483-1F1F08799731</title>
    <desc>Created with sketchtool.</desc>
    <defs></defs>
    <g id="Page-1" stroke="none" stroke-width="1" fill="none" fill-rule="evenodd" stroke-linecap="round" stroke-linejoin="round">
        <g id="Homepage_Produk-Sosial-Copy-2" transform="translate(-18.000000, -18.000000)" stroke="#323232" stroke-width="2">
            <g id="Icon-slider-03-(social)" transform="translate(19.000000, 19.000000)">
                <path d="M35,10.5 C35,16.2990732 30.2990732,21 24.5,21 C18.7009268,21 14,16.2990732 14,10.5 C14,4.70092683 18.7009268,0 24.5,0 C30.2990732,0 35,4.70092683 35,10.5 Z" id="Stroke-1"></path>
                <path d="M29,9.5 C29,11.9852771 26.9852771,14 24.5,14 C22.0147229,14 20,11.9852771 20,9.5 C20,7.01472293 22.0147229,5 24.5,5 C26.9852771,5 29,7.01472293 29,9.5 Z" id="Stroke-3"></path>
                <path d="M31,19 C31,16.2388361 28.7114712,14 25.8890213,14 L22.6823959,14 C20.0964411,14 18,16.0509194 18,18.5807234" id="Stroke-5"></path>
                <path d="M21,38.5 C21,44.2990732 16.2990732,49 10.5,49 C4.70092683,49 0,44.2990732 0,38.5 C0,32.7019512 4.70092683,28 10.5,28 C16.2990732,28 21,32.7019512 21,38.5 Z" id="Stroke-7"></path>
                <path d="M15,37.5 C15,39.9852771 12.9852771,42 10.5,42 C8.01472293,42 6,39.9852771 6,37.5 C6,35.0147229 8.01472293,33 10.5,33 C12.9852771,33 15,35.0147229 15,37.5 Z" id="Stroke-9"></path>
                <path d="M17,47 C17,44.2388361 14.7114712,42 11.8890213,42 L8.68239593,42 C6.09644105,42 4,44.0509194 4,46.5807234" id="Stroke-11"></path>
                <path d="M50,38.5 C50,44.2990732 45.2990732,49 39.5,49 C33.7009268,49 29,44.2990732 29,38.5 C29,32.7019512 33.7009268,28 39.5,28 C45.2990732,28 50,32.7019512 50,38.5 Z" id="Stroke-13"></path>
                <path d="M44,37.5 C44,39.9852771 41.9852771,42 39.5,42 C37.0147229,42 35,39.9852771 35,37.5 C35,35.0147229 37.0147229,33 39.5,33 C41.9852771,33 44,35.0147229 44,37.5 Z" id="Stroke-15"></path>
                <path d="M46,47 C46,44.2388361 43.7114712,42 40.8890213,42 L37.6823959,42 C35.0964411,42 33,44.0509194 33,46.5807234" id="Stroke-17"></path>
                <polyline id="Stroke-19" points="18 30 25 26.619253 25 21"></polyline>
                <path d="M32,31 L24,27" id="Stroke-21"></path>
            </g>
        </g>
    </g>
</svg>