<?xml version="1.0" encoding="UTF-8"?>
<svg width="40px" height="58px" viewBox="0 0 40 58" version="1.1" xmlns="http://www.w3.org/2000/svg" xmlns:xlink="http://www.w3.org/1999/xlink">
    <!-- Generator: sketchtool 50.2 (55047) - http://www.bohemiancoding.com/sketch -->
    <title>B8D77FC4-65EC-4E77-8E77-E6F1EEA3C425</title>
    <desc>Created with sketchtool.</desc>
    <defs></defs>
    <g id="Page-1" stroke="none" stroke-width="1" fill="none" fill-rule="evenodd" stroke-linecap="round" stroke-linejoin="round">
        <g id="Homepage_Produk-Sosial-Copy-4" transform="translate(-24.000000, -16.000000)" stroke="#323232" stroke-width="2">
            <g id="Icon-Slider-04-(trofi)" transform="translate(25.000000, 17.000000)">
                <path d="M18,44 L18,44 C13.1041615,44 9.13560832,39.9707355 9.13560832,35 L8.00599459,26.7244562 C7.95398542,26.3419433 8.24701268,26 8.62820182,26 L27.3717982,26 C27.7529873,26 28.0460146,26.3419433 27.9940054,26.7244562 L26.8650259,35 C26.8650259,39.9707355 22.8958385,44 18,44 Z" id="Stroke-1"></path>
                <path d="M8.41929618,32 L4.62440338,32 C4.26499323,32 3.97859811,32.3102391 4.00125794,32.681873 C4.16365342,35.3590736 5.60695897,45 18,45" id="Stroke-3"></path>
                <path d="M28.5807021,32 L32.3762236,32 C32.7356337,32 33.0213993,32.3102391 32.9987395,32.681873 C32.8369735,35.3590736 31.3936682,45 19,45" id="Stroke-5"></path>
                <path d="M20.3180644,50 L17.6812468,50 C17.3044601,50 17,49.710911 17,49.3539546 L17,45.6460454 C17,45.289089 17.3044601,45 17.6812468,45 L20.3180644,45 C20.6941622,45 21,45.289089 21,45.6460454 L21,49.3539546 C21,49.710911 20.6941622,50 20.3180644,50 Z" id="Stroke-7"></path>
                <path d="M25.3671847,50 L10.6328153,50 C10.2831689,50 10,50.2760411 10,50.6168865 L10,55.3837366 C10,55.7239589 10.2831689,56 10.6328153,56 L25.3671847,56 C25.7161919,56 26,55.7239589 26,55.3837366 L26,50.6168865 C26,50.2760411 25.7161919,50 25.3671847,50 Z" id="Stroke-9"></path>
                <path d="M19.0225671,31.3387423 L19.6526016,32.6694572 C19.7374865,32.849071 19.9015973,32.9736206 20.0914879,33.0024637 L21.5005771,33.2155092 C21.9784476,33.2882724 22.1689671,33.9005324 21.8237685,34.2518936 L20.8038923,35.2876224 C20.6668189,35.4272491 20.6039412,35.6284952 20.6360088,35.8258081 L20.8768304,37.2882834 C20.9585714,37.7845155 20.4593225,38.1634087 20.0311254,37.9287309 L18.7716851,37.2384635 C18.6019153,37.145379 18.3988203,37.145379 18.2290506,37.2384635 L16.9689815,37.9287309 C16.5414132,38.1634087 16.0415355,37.7845155 16.1232765,37.2882834 L16.3640981,35.8258081 C16.3961657,35.6284952 16.3339168,35.4272491 16.1962146,35.2876224 L15.1769671,34.2518936 C14.830511,33.9005324 15.0216592,33.2882724 15.4995297,33.2155092 L16.9086189,33.0024637 C17.0985096,32.9736206 17.2626204,32.849071 17.3475052,32.6694572 L17.9775398,31.3387423 C18.1913239,30.8870859 18.8087829,30.8870859 19.0225671,31.3387423 Z" id="Stroke-11"></path>
                <path d="M13,53 L23,53" id="Stroke-13"></path>
                <path d="M18.1112894,17.8860675 L5.27670089,9.4897098 C4.90776637,9.24918567 4.90776637,8.75081433 5.27670089,8.50962393 L18.1112894,0.113932484 C18.3436788,-0.0379774948 18.6568136,-0.0379774948 18.8892029,0.113932484 L31.7237915,8.50962393 C32.0920695,8.75081433 32.0920695,9.24918567 31.7237915,9.4897098 L18.8892029,17.8860675 C18.6568136,18.0379775 18.3436788,18.0379775 18.1112894,17.8860675 Z" id="Stroke-17"></path>
                <path d="M19,17.4806236 L10,12 L10,17.1800145 C10,17.3538532 10.0962355,17.517023 10.2603633,17.6205731 L18.6170353,22.8922138 C18.8444412,23.0359287 19.1548997,23.0359287 19.3823056,22.8922138 L27.7396367,17.6205731 C27.9031053,17.517023 28,17.3538532 28,17.1800145 L28,12 L19,17.4806236 Z" id="Stroke-19"></path>
                <path d="M32,16 L32,9" id="Stroke-21"></path>
                <path d="M8,21.4996621 C8,22.3282271 7.32822708,23 6.49966209,23 C5.67109709,23 5,22.3282271 5,21.4996621 C5,20.6710971 5.67109709,20 6.49966209,20 C7.32822708,20 8,20.6710971 8,21.4996621 Z" id="Stroke-23"></path>
                <path d="M38,13.5 C38,14.3283784 37.3282271,15 36.5003379,15 C35.6717729,15 35,14.3283784 35,13.5 C35,12.6716216 35.6717729,12 36.5003379,12 C37.3282271,12 38,12.6716216 38,13.5 Z" id="Stroke-25"></path>
                <path d="M2,11 L2,15" id="Stroke-27"></path>
                <path d="M3,13 L0,13" id="Stroke-29"></path>
                <path d="M33,21 L33,25" id="Stroke-31"></path>
                <path d="M35,23 L32,23" id="Stroke-33"></path>
            </g>
        </g>
    </g>
</svg>